# xmcd CD database file
# Copyright (C) 1996 Ti Kan
#
# Track frame offsets:
# 	150
# 	16468
# 	34045
# 	49700
# 	63763
# 	78138
# 	94573
# 	111925
# 	125258
# 	140803
#
# Disc length: 2078 seconds
#
# Revision: 1
# Processed by: cddbd v1.4b41PL1 Copyright (c) Steve Scherf et al.
# Submitted via: DiscPlay 3.2
#
DISCID=79081c0a
DTITLE=Doug Stone - Doug Stone's Greatest Hits
DYEAR=1900
DGENRE=
TTITLE0=Little Houses
TTITLE1=Too Busy Being In Love
TTITLE2=A Jukebox With A Country Song
TTITLE3=Made For Lovin You
TTITLE4=Why Didn't I think Of That
TTITLE5=In A Different Light
TTITLE6=Come In Out Of The Pain
TTITLE7=Warning labels
TTITLE8=I Thought It Was You
TTITLE9=I'd Be Better Off (In A Pine Box)
EXTD=
EXTT0=
EXTT1=
EXTT2=
EXTT3=
EXTT4=
EXTT5=
EXTT6=
EXTT7=
EXTT8=
EXTT9=
PLAYORDER=
